# xmcd CD database file
#
# Track frame offsets:
#	150
#	30220
#	53425
#	76485
#	95871
#	122319
#	151109
#	172765
#	191366
#	212062
#	231309
#	257898
#	270604
#	293436
#	310535
#	339021
#
# Disc length: 4761 seconds
#
# Revision: 0
# Processed by: cddbd v1.5.2PL0 Copyright (c) Steve Scherf et al.
# Submitted via: CDex 1.51
#
DISCID=bd129710
DTITLE=Various Artist - Jazz Legends Volume 1 (KLM)
DYEAR=2005
DGENRE=Jazz
TTITLE0=Diana Krall - Besame Mucho
TTITLE1=Jamie Cullum - What a Difference a Day Made
TTITLE2=Norah Jones featuringThe Peter Malick Group - New York City
TTITLE3=Joâo and Astrud Gilberto Featuring Stan Getz - Corcovado (Quiet Nights Of Quiet Stars)
TTITLE4=Stan Getz - Desafinado
TTITLE5=Billie Holiday - Body and Soul
TTITLE6=The Oscar Peterson Trio - You Look Good To Me
TTITLE7=Natalie Cole - I Haven't Got Anything Better To Do
TTITLE8=Toots Thielemans - Bluesette
TTITLE9=Laura Fygi Featuring Michael Franks - Tell Me All About It
TTITLE10=Chet Baker - You Got To My Head
TTITLE11=Dinah Washington - Mad About A Boy
TTITLE12=Enroll Garner - Don't Worry About Me
TTITLE13=Ella Fitzgerald and Louis Armstrong - Can't We Be Friends
TTITLE14=Ben Webster - The Touch Of Your Lips
TTITLE15=Dee Dee Bridgewater - Mack The Knife
EXTD=YEAR: 2005
EXTT0=
EXTT1=
EXTT2=
EXTT3=
EXTT4=
EXTT5=
EXTT6=
EXTT7=
EXTT8=
EXTT9=
EXTT10=
EXTT11=
EXTT12=
EXTT13=
EXTT14=
EXTT15=
PLAYORDER=
